<mxfile host="app.diagrams.net" modified="2021-06-10T09:31:08.191Z" agent="5.0 (Windows NT 10.0; Win64; x64) AppleWebKit/537.36 (KHTML, like Gecko) Chrome/91.0.4472.77 Safari/537.36" etag="y5gzTMo0V3-lcxB2yHD5" version="14.7.6" type="github">
  <diagram id="wfxjvXh2MPcRGbS0qH0T" name="Page-1">
    <mxGraphModel dx="1422" dy="706" grid="1" gridSize="10" guides="1" tooltips="1" connect="1" arrows="1" fold="1" page="1" pageScale="1" pageWidth="827" pageHeight="1169" math="0" shadow="0">
      <root>
        <mxCell id="0" />
        <mxCell id="1" parent="0" />
        <mxCell id="rObRKcawSXUeI-A8oyM0-19" style="edgeStyle=orthogonalEdgeStyle;rounded=0;orthogonalLoop=1;jettySize=auto;html=1;exitX=1;exitY=0.5;exitDx=0;exitDy=0;entryX=0;entryY=0.5;entryDx=0;entryDy=0;" edge="1" parent="1" source="rObRKcawSXUeI-A8oyM0-1" target="rObRKcawSXUeI-A8oyM0-2">
          <mxGeometry relative="1" as="geometry" />
        </mxCell>
        <mxCell id="rObRKcawSXUeI-A8oyM0-20" style="edgeStyle=orthogonalEdgeStyle;rounded=0;orthogonalLoop=1;jettySize=auto;html=1;exitX=1;exitY=0.5;exitDx=0;exitDy=0;entryX=0;entryY=0.5;entryDx=0;entryDy=0;" edge="1" parent="1" source="rObRKcawSXUeI-A8oyM0-1" target="rObRKcawSXUeI-A8oyM0-3">
          <mxGeometry relative="1" as="geometry" />
        </mxCell>
        <mxCell id="rObRKcawSXUeI-A8oyM0-21" style="edgeStyle=orthogonalEdgeStyle;rounded=0;orthogonalLoop=1;jettySize=auto;html=1;exitX=1;exitY=0.5;exitDx=0;exitDy=0;entryX=0;entryY=0.5;entryDx=0;entryDy=0;" edge="1" parent="1" source="rObRKcawSXUeI-A8oyM0-1" target="rObRKcawSXUeI-A8oyM0-4">
          <mxGeometry relative="1" as="geometry" />
        </mxCell>
        <mxCell id="rObRKcawSXUeI-A8oyM0-1" value="OP V4.2" style="rounded=0;whiteSpace=wrap;html=1;" vertex="1" parent="1">
          <mxGeometry x="110" y="280" width="100" height="40" as="geometry" />
        </mxCell>
        <mxCell id="rObRKcawSXUeI-A8oyM0-13" value="" style="edgeStyle=orthogonalEdgeStyle;rounded=0;orthogonalLoop=1;jettySize=auto;html=1;" edge="1" parent="1" source="rObRKcawSXUeI-A8oyM0-2" target="rObRKcawSXUeI-A8oyM0-6">
          <mxGeometry relative="1" as="geometry" />
        </mxCell>
        <mxCell id="rObRKcawSXUeI-A8oyM0-14" style="edgeStyle=orthogonalEdgeStyle;rounded=0;orthogonalLoop=1;jettySize=auto;html=1;exitX=1;exitY=0.5;exitDx=0;exitDy=0;entryX=0;entryY=0.5;entryDx=0;entryDy=0;" edge="1" parent="1" source="rObRKcawSXUeI-A8oyM0-2" target="rObRKcawSXUeI-A8oyM0-5">
          <mxGeometry relative="1" as="geometry" />
        </mxCell>
        <mxCell id="rObRKcawSXUeI-A8oyM0-2" value="信息管理" style="rounded=0;whiteSpace=wrap;html=1;" vertex="1" parent="1">
          <mxGeometry x="260" y="210" width="100" height="40" as="geometry" />
        </mxCell>
        <mxCell id="rObRKcawSXUeI-A8oyM0-15" style="edgeStyle=orthogonalEdgeStyle;rounded=0;orthogonalLoop=1;jettySize=auto;html=1;exitX=1;exitY=0.5;exitDx=0;exitDy=0;entryX=0;entryY=0.5;entryDx=0;entryDy=0;" edge="1" parent="1" source="rObRKcawSXUeI-A8oyM0-3" target="rObRKcawSXUeI-A8oyM0-7">
          <mxGeometry relative="1" as="geometry" />
        </mxCell>
        <mxCell id="rObRKcawSXUeI-A8oyM0-16" style="edgeStyle=orthogonalEdgeStyle;rounded=0;orthogonalLoop=1;jettySize=auto;html=1;exitX=1;exitY=0.5;exitDx=0;exitDy=0;entryX=0;entryY=0.5;entryDx=0;entryDy=0;" edge="1" parent="1" source="rObRKcawSXUeI-A8oyM0-3" target="rObRKcawSXUeI-A8oyM0-8">
          <mxGeometry relative="1" as="geometry" />
        </mxCell>
        <mxCell id="rObRKcawSXUeI-A8oyM0-3" value="游戏管理" style="rounded=0;whiteSpace=wrap;html=1;" vertex="1" parent="1">
          <mxGeometry x="260" y="310" width="100" height="40" as="geometry" />
        </mxCell>
        <mxCell id="rObRKcawSXUeI-A8oyM0-18" style="edgeStyle=orthogonalEdgeStyle;rounded=0;orthogonalLoop=1;jettySize=auto;html=1;exitX=1;exitY=0.5;exitDx=0;exitDy=0;entryX=0;entryY=0.5;entryDx=0;entryDy=0;" edge="1" parent="1" source="rObRKcawSXUeI-A8oyM0-4" target="rObRKcawSXUeI-A8oyM0-12">
          <mxGeometry relative="1" as="geometry" />
        </mxCell>
        <mxCell id="rObRKcawSXUeI-A8oyM0-4" value="用户信息" style="rounded=0;whiteSpace=wrap;html=1;" vertex="1" parent="1">
          <mxGeometry x="260" y="410" width="100" height="40" as="geometry" />
        </mxCell>
        <mxCell id="rObRKcawSXUeI-A8oyM0-5" value="节点分配上车点命名" style="rounded=0;whiteSpace=wrap;html=1;" vertex="1" parent="1">
          <mxGeometry x="410" y="180" width="130" height="40" as="geometry" />
        </mxCell>
        <mxCell id="rObRKcawSXUeI-A8oyM0-6" value="城市基准延迟" style="rounded=0;whiteSpace=wrap;html=1;" vertex="1" parent="1">
          <mxGeometry x="410" y="230" width="130" height="40" as="geometry" />
        </mxCell>
        <mxCell id="rObRKcawSXUeI-A8oyM0-10" value="" style="edgeStyle=orthogonalEdgeStyle;rounded=0;orthogonalLoop=1;jettySize=auto;html=1;" edge="1" parent="1" source="rObRKcawSXUeI-A8oyM0-7" target="rObRKcawSXUeI-A8oyM0-9">
          <mxGeometry relative="1" as="geometry" />
        </mxCell>
        <mxCell id="rObRKcawSXUeI-A8oyM0-7" value="新增区服" style="rounded=0;whiteSpace=wrap;html=1;" vertex="1" parent="1">
          <mxGeometry x="410" y="280" width="130" height="40" as="geometry" />
        </mxCell>
        <mxCell id="rObRKcawSXUeI-A8oyM0-17" style="edgeStyle=orthogonalEdgeStyle;rounded=0;orthogonalLoop=1;jettySize=auto;html=1;exitX=1;exitY=0.5;exitDx=0;exitDy=0;entryX=0;entryY=0.5;entryDx=0;entryDy=0;" edge="1" parent="1" source="rObRKcawSXUeI-A8oyM0-8" target="rObRKcawSXUeI-A8oyM0-11">
          <mxGeometry relative="1" as="geometry" />
        </mxCell>
        <mxCell id="rObRKcawSXUeI-A8oyM0-8" value="区服标识管理" style="rounded=0;whiteSpace=wrap;html=1;" vertex="1" parent="1">
          <mxGeometry x="410" y="340" width="130" height="40" as="geometry" />
        </mxCell>
        <mxCell id="rObRKcawSXUeI-A8oyM0-9" value="节点分配下车点命名" style="rounded=0;whiteSpace=wrap;html=1;" vertex="1" parent="1">
          <mxGeometry x="580" y="280" width="130" height="40" as="geometry" />
        </mxCell>
        <mxCell id="rObRKcawSXUeI-A8oyM0-11" value="ping测IP配置" style="rounded=0;whiteSpace=wrap;html=1;" vertex="1" parent="1">
          <mxGeometry x="580" y="340" width="130" height="40" as="geometry" />
        </mxCell>
        <mxCell id="rObRKcawSXUeI-A8oyM0-12" value="IP库管理和IP归属查询" style="rounded=0;whiteSpace=wrap;html=1;" vertex="1" parent="1">
          <mxGeometry x="410" y="410" width="130" height="40" as="geometry" />
        </mxCell>
      </root>
    </mxGraphModel>
  </diagram>
</mxfile>
